<svg width="213.00000000000003" height="123.36250000000001" viewBox="0 0 240 139">
    <defs></defs>
    <g id="rootContainer" transform="matrix(1,0,0,1,0,0)" fill="#a3a3a3">
        <rect xmlns="http://www.w3.org/2000/svg" width="240" height="139" rx="10" ry="10"></rect>
    </g>
    <g id="logo" transform="matrix(6.561679888572791,0,0,6.561679888572791,15.275587163643632,-13.59580027856802)"
        fill="black">
        <path
            d="M4.42 5.18 l-0.06 13.02 l1.6 -0.22 l1.4 0.04 l-0.06 1.88 l-1.2 0.16 l-5.12 -0.04 l-0.26 -13.42 l0.3 -1.44 z M11.48 5.119999999999999 l3.36 0 l-2.52 8.38 l0 1.02 l-0.16 5.52 l-3.88 0.1 l0.72 -6.08 l-0.64 -0.98 l-2.44 -7.74 l3.08 -0.22 l1.36 7.52 l0.56 -1.54 z M17.4 7.699999999999999 l0.06 1.58 l0 2.06 l0.72 0 l0.7 -0.06 l0.46 -0.44 l0 -0.2 l0.08 -1.36 l-0.16 -1.22 l0 -0.04 l-0.22 -0.8 l-0.54 -0.24 l-1.04 0 z M17.28 5.24 l2.62 0.04 l1.24 0.14 l1.02 0.58 l0.8 1.32 l-0.26 3.86 l-0.32 0.6 l-1.18 0.38 l1.34 1 l0.36 0.98 l0 1.6 l-0.18 4.24 l-0.52 0.12 l-2.06 -0.1 l-0.1 -3.9 l-0.14 -2.06 l-0.48 -0.52 l-0.92 -0.3 l0 1.48 l0 3.72 l0.06 1.56 l-1.94 -0.02 l-0.92 0.06 l-0.32 -0.06 l0 -2.88 l0 -2.1 l0.12 -2.72 l-0.08 -4.68 l-0.04 -2.32 z M26.020000000000003 13.379999999999999 l2 -0.1 l-0.06 -2.78 l-0.5 -1.94 l-1.24 -0.1 z M26.560000000000002 5.199999999999999 l1.28 0 l2.62 0.18 l0.54 7.26 l0.2 7.24 l-0.6 0.04 l-2.26 0.1 l-0.24 0 l-0.18 -4.5 l-1.88 -0.12 l-0.5 4.6 l-1.96 0.06 l0.64 -7.48 l0.58 -4.28 l0.42 -3 z">
        </path>
    </g>
</svg>